<?xml version="1.0" encoding="utf-8"?>
<!-- Svg Vector Icons : http://www.onlinewebfonts.com/icon -->
<!DOCTYPE svg PUBLIC "-//W3C//DTD SVG 1.1//EN" "http://www.w3.org/Graphics/SVG/1.1/DTD/svg11.dtd">
<svg version="1.1" xmlns="http://www.w3.org/2000/svg" xmlns:xlink="http://www.w3.org/1999/xlink" x="0px" y="0px" viewBox="0 0 1000 1000" enable-background="new 0 0 1000 1000" xml:space="preserve">
<metadata> Svg Vector Icons : http://www.onlinewebfonts.com/icon </metadata>
<g><path style="fill:#3CA6CB" d="M499.4,836.9C229.3,836.9,10,511.6,10,500.6c0-12.2,219.3-337.5,489.4-337.5c271.3,0,494.3,339.3,490.6,337.5C986.3,497.5,770.7,836.9,499.4,836.9L499.4,836.9L499.4,836.9z M497.5,270.9c-114.5,0-207,99.8-207,224.2c0,123.1,92.5,223.5,207,223.5c115.1,0,208.2-100.4,208.2-223.5C705.8,370.8,612.7,270.9,497.5,270.9L497.5,270.9L497.5,270.9z M496.9,593.1c-54.5,0-98.6-47.8-98.6-106c0-58.2,44.1-105.4,98.6-105.4c54.5,0,98,47.2,98,105.4C594.9,545.3,551.4,593.1,496.9,593.1L496.9,593.1L496.9,593.1z"/></g>
</svg>
